<?xml version="1.0" encoding="UTF-8"?>
<svg id="Layer_2" data-name="Layer 2" xmlns="http://www.w3.org/2000/svg" viewBox="0 0 1086.65 2153.5">
  <defs>
    <style>
      .cls-1 {
        stroke-width: 0px;
      }
    </style>
  </defs>
  <g id="Layer_3" data-name="Layer 3">
    <g>
      <path class="cls-1" d="m469.07,574.71c-21.15,24.96-39.64,54.93-45.39,87.65-4.15,23.62-3.43,53.52,16.99,70.07,48.21,39.06,120.76-13.27,152.25-50.44,31.82-37.55,74.4-114.63,28.4-157.72-48.22-39.06-120.76,13.27-152.26,50.43h0Z"/>
      <path class="cls-1" d="m291.88,606.99c-6.12-5.66-7.09-7.36-13.51-2.92-.96.67-1.93,1.33-2.89,2,3.96,2.79,7.47,6.56,10.1,9.51,15.42,17.27,27.71,36.99,38.95,57.15,4.02,7.47,28.05,49.37,30.62,74.26,4.76-3.87,7.03-8.35,4.58-17.83-5.78-22.28-15.89-43.08-26.75-63.28-11.35-20.41-23.78-42.85-41.1-58.9h0Z"/>
      <path class="cls-1" d="m416.86,533.23c-35.32,41.5-85.64,128.01-33.72,176.13h0c3.15,2.66,6.29,5.31,9.44,7.97-17.86-54.93,23.54-128.03,58.3-165.4,32.91-35.37,92.82-78.88,145.53-70.86-4.1-3.33-8.19-6.66-12.29-9.98-54.77-37.16-132.22,22.77-167.25,62.13h0Z"/>
      <path class="cls-1" d="m366.16,707.54c-.01-.19-.04-.38-.03-.57-.13-.17-.26-.35-.39-.52.14.37.28.73.42,1.1h0Z"/>
      <path class="cls-1" d="m290.13,582.56c39.67-4.65,52.01-49.61,47.41-83.41-5.74-29.9-28.24-70.5-64.73-66.21-11.24,1.32-20.5,6.17-27.84,13.19,4.17-2.08,8.82-3.51,14.02-4.07,35.51-3.82,58.14,28.48,64.33,59.79.03.15,0,.28,0,.44.03.1.09.18.1.29,3.83,29.31-6.95,73.33-42.75,77.19-4.24.46-8.35.36-12.31-.21,6.58,2.73,13.84,3.92,21.77,2.99h0Z"/>
      <path class="cls-1" d="m310.06,680.42c2.26,4.22,31.29,56.58,19.44,62.38,3.87,4.62,8.18,8.88,12.89,11.09,1.48.7-5.31-28.06-6.28-30.57-5.97-15.55-13.17-30.41-21.04-45.07-7.96-14.27-16.32-28.47-26.21-41.51-5.66-7.45-13.17-18.85-22.04-23.03-.83-.39.95,8.51,2.84,16.83,16.2-.69,35.08,40.37,40.4,49.86h0Z"/>
      <path class="cls-1" d="m284.28,573.43c29.43-10.01,37.19-42.57,33.71-70.33-5.38-26.82-28.99-66.14-62.62-54.71-11.25,3.83-19.72,11.45-25.51,20.98-5.84,14.92-7.32,32.1-4.46,46.98,3.36,17.52,12.48,38.69,26.79,52.37,9.22,6.18,20.08,8.79,32.1,4.71h0Z"/>
      <path class="cls-1" d="m340.38,189.66c87.99-21.4,187.54,39.69,173.9,137.43-6.22,44.56-29.86,105.05-85.94,87.37-22.38-7.06-43.01-20.53-60.96-37.33,16.96,17.01,36.28,31.3,57.15,40.42,20.6,9,46.99,13.38,65.12-3.49,21.2-19.73,30.26-52.39,34.12-80.3,7.08-51.08-10.26-102.13-55.97-129.48-38.56-23.07-85.24-28.48-128.64-17.85-10.86,3.02-18.39,9.77-23.46,18.69,5.7-7.03,13.7-12.46,24.67-15.45h0Z"/>
      <path class="cls-1" d="m244.27,204.67c-.91.14-1.75.06-2.51-.15-8.7,2.45-15.93,6.2-22.41,11.02,3.17-1.58,6.53-2.95,10.29-3.9,36.41-5.03,15.76,79.95,12.45,97.25-6.58,34.08-18.32,66.46-33.59,97.57-5.02,8.72-12.22,8.82-18.2,3.95,5.09,11.06,12.67,22.92,18.59,12.51,18.1-36.79,31.88-75.17,39.6-115.49,2.59-13.46,22.12-106.77-4.21-102.76h0Z"/>
      <path class="cls-1" d="m422.81,406.81c20.98,7.56,44.75,7.77,60.19-10.93,17.08-20.68,25.46-52.06,26.77-78.56,4.43-89.77-86.36-142.23-167.93-122.39-47.18,12.86-33.46,75.93-20.96,109.92,20.26,41.05,57.63,86,101.94,101.95h0Z"/>
      <path class="cls-1" d="m627.06,505.99c-52.59-43.02-133.06,13.92-168.44,53.68-25.73,28.91-48.02,64.05-55.43,102.61-4.66,24.23-4.8,54.29,11.93,74.09,4.65,3.94,9.31,7.87,13.96,11.8,31.53,19.65,71.12,8.18,105.06-12.37-32.87,17.93-70.18,25.92-97.34.5-49.47-46.31-4.03-131.21,32.46-170,35.14-37.37,106.03-86.31,155.94-45.89,21.36,20.01,25,47.21,19.32,74.78,9.48-32.59,8.02-65.54-17.46-89.19h0Z"/>
      <path class="cls-1" d="m336.26,175.86c48.56-11.9,105.25-5.6,146.12,25.01,44.53,33.35,61.48,86.57,51.16,140.69-5.47,28.72-14.8,65.17-39.99,83.35-18.39,13.27-41.52,14.47-62.58,6.88-53.92-19.43-98.78-69.66-123.53-120.14-.12-.24-.18-.48-.27-.72-.09-.2-.2-.37-.28-.59-14-38.53-22.93-119.94,29.37-134.49h0Zm-69.33,246.84c43.59-9.21,74.15,37.01,81.16,73.54,5.35,39.28-8.3,87.32-52.1,96.56-1.15.24-2.28.43-3.42.59,21.92,16.51,36.8,43.5,49.85,66.97,2.97,5.53,6.59,11.89,10.27,18.71-13.05-51.9,25.47-117.22,56.42-153.59,34.79-39.09,101.98-89.13,158.49-73.62.29-.25.63-.49,1.01-.69,13.93-7.62,14.43-36.32,14.85-49.33,1.56-48.57-8.46-97.08-19.84-144.03-7.23-20.53-14.8-45.1-35.03-56.12-12.17-6.63-24.56-12.85-37.23-18.46-26.05-11.55-52.93-21.31-80.35-29.09-52.17-14.8-107.29-24.92-161.72-22.04-36.67,1.94-86.99,9.44-106.82,45.25-21.73,39.25,1.05,87.34,22.8,123.26,2.35-24.96,9.44-49.35,24.41-69.78.08-1.11.51-2.23,1.42-3.26,14.46-16.28,28.2-28.9,49.87-34.26,1.54-.38,2.87-.12,3.95.49,42.14-1.49,18.28,94.87,14.11,116.54-7.89,41.23-22.19,80.49-40.7,118.11-.21.43-.46.8-.73,1.12-1.78,2.83-3.75,4.9-5.83,6.28,5.22,7.4,9.09,14.85,11.25,22.66,8.3-17.51,22.49-31.3,43.9-35.82h0Z"/>
      <path class="cls-1" d="m203.78,403.71c15.07-30.73,26.54-62.64,33.04-96.27,2.44-12.75,19.67-94.02-5.72-90.52-17.35,4.4-26.89,16.77-38.17,29.58-1,1.29-1.95,2.59-2.86,3.93-11.62,22.14-15.01,48.31-14.78,73.06-.38,19.12.8,38.65,5.1,57.41,3.49,9.96,14.69,37.9,23.38,22.81h0Z"/>
      <path class="cls-1" d="m719.03,1230.38c-.04-.21-.09-.4-.14-.6.05.2.09.4.14.6h0Z"/>
      <path class="cls-1" d="m778.12,1572.25c.49-.13.98-.26,1.47-.4-.22-.01-.43-.03-.64-.04-.28.14-.56.29-.83.44h0Z"/>
      <path class="cls-1" d="m320.97,1123.24c.82-12.63,1.74-25.25,2.7-37.87-3.76.13-7.61.31-11.26,1.14.06,12.63.13,25.26.19,37.88,2.98.8,5.73.45,8.37-1.14h0Z"/>
      <path class="cls-1" d="m430.88,1167.52c.33-12.49.8-24.96,1.35-37.43-3,0-6.02.11-8.91.65-.5,12.6-1.01,25.21-1.51,37.82,3.11.97,6.17.77,9.07-1.04h0Z"/>
      <path class="cls-1" d="m457.71,1764.4c.12.15.23.31.33.48.03-.24.06-.48.09-.71-.14.08-.28.15-.42.23h0Z"/>
      <path class="cls-1" d="m325.05,737.18c2.01-.84-3.2-18.72-3.7-19.98-4.62-11.72-10.08-22.91-16.01-34-7.88-14.06-18.51-38.24-33.33-46.34-.4-.22-.65-.1-.8.27.89,3.64,1.63,6.48,1.9,7.19,5.94,15.48,12.96,30.59,21.04,45.08,7.96,14.27,16.32,28.46,26.21,41.5,1.45,1.91,3.02,4.06,4.7,6.3h0Z"/>
      <path class="cls-1" d="m847.91,1877.41c.2-.2.4-.39.59-.59-.27.03-.53.07-.8.1.07.16.14.32.21.49h0Z"/>
      <g>
        <path class="cls-1" d="m395.89,1708.98c-.86.06-.53.1,0,0h0Z"/>
        <path class="cls-1" d="m392.17,1717.76c-.88.24-1.87.22-2.99-.18-56.11-19.96-111.04-43.42-168.32-59.98-40.91-11.82-89.78-25.04-133.68-17.21-21.3,29.64-31.9,66.87-40.14,101.95-10.84,46.19-17.48,93.37-21.23,140.64-3.37,42.48-5.1,85.36-2.54,127.93.94,15.67.39,41.92,7.6,60.14,45.88,29.13,97.97,44.55,152.19,51.16,44.72,5.46,88.81,15.1,133.36,21.72,44.43,6.6,100.17,17.06,143.85,1.33,8.09-2.92,13.85-7.36,18.27-12.84-23.92-27.46-41.24-62.81-54.51-95.73-40.73-101.03-45.93-211.87-31.87-318.93h0Z"/>
        <path class="cls-1" d="m17.27,1887.22c3.92-49.35,10.24-98.89,21.86-147.07,7.98-33.08,17.69-68.09,36.36-97.12-2.98.82-5.92,1.74-8.84,2.78-.3.58-.6,1.15-.9,1.72-.34.91-.78,1.83-1.45,2.76-.44.81-.94,1.5-1.48,2.12-20.09,28.52-30.75,63.35-38.91,96.88-10.22,41.97-16.69,84.84-20.27,127.87-3.33,40-5.02,80.47-2.24,120.56,1.18,17.04.9,49.43,13.45,62.35,1.88,1.38,3.78,2.73,5.68,4.06-3.51-14.83-3.94-31.5-4.82-43.63-3.21-44.32-1.95-89.03,1.57-133.29h0Z"/>
        <path class="cls-1" d="m439.52,1733.2c-11.29-4.82-22.09-10.56-32.78-16.63-.55.43-1.18.77-1.87,1-1.46.49-3.06,1.16-4.68,1.63-13.91,105.34-9.09,216.07,31.78,315.3,12.8,31.08,28.94,64.54,51.31,90.86,3.59-6.47,6.13-13.87,8.64-21.69,3.29-10.25,7.02-19.55,16.46-24.51-29.52-28.02-47.46-69.62-58.66-107.82-22.68-77.35-21.97-158.96-10.2-238.13h0Z"/>
        <path class="cls-1" d="m1008.22,889.49c-32.97-67.21-84.38-112.61-150.92-145.54-39.39-19.49-80.25-35.78-120.99-52.2-26.32-10.6-44.43-35.73-50.72-62.78-.97-1.61-1.44-3.65-1.12-6.18,12.77-102.05,4.32-204.56,14.6-306.6,0,0,.02-.08.03-.12.02-.89.11-1.81.37-2.79,7.15-27.71,5.89-57.84,2.26-85.98-10.44-80.96-49.18-171.13-126.15-208.98-47.66-23.44-102.55-22.29-152.84-8.29-77.5,21.56-147.15,66.13-210.49,115.17,10.28-1.9,20.6-3.03,30.47-3.66,60.09-3.82,121.53,6.87,178.89,24.3,30.5,9.27,60.53,20.46,89.21,34.41,12.29,5.97,29.01,11.92,38.38,22.21,12.11,13.29,19.13,35.81,24.99,52.46.15.42.24.83.29,1.22,12.03,49.65,24.15,103.49,19.38,154.94-1.26,13.6-3.23,34.33-14.07,45.27,3.13,1.46,6.21,3.21,9.24,5.15.58.21,1.16.51,1.72.95.23.19.45.38.69.56,1.92,1.32,3.81,2.73,5.67,4.26.48.39.82.82,1.11,1.25,12.2,9.91,24.4,19.83,36.6,29.74.36.29.66.6.9.92,56.62,54.18,4.55,152.48-37.74,197.91-27.87,29.95-63.52,57.55-104.11,67.17-14.84,3.51-31.27,5.07-46.61,2.35,6.35,67.46,8.49,134.89,4.92,202.59-2.72,51.55-6.43,103-8.76,154.56.11.76.07,1.53-.09,2.27-.64,14.42-1.18,28.85-1.55,43.3.46,1.6.1,3.38-1.63,4.84-8.02,6.77-17.44,7.57-26.71,2.68-1.63-.86-2.78-2.89-2.71-4.73.61-15.21,1.22-30.42,1.83-45.62.1-2.61,1.63-4.4,4.02-5.28,5-1.84,10.67-2.06,16.14-2.05,2.47-51.61,6.3-103.12,8.76-154.76,3.2-67.08.99-133.83-5.41-200.67-8.01-2.74-15.49-6.92-22.01-12.97-1.99-1.85-3.83-3.76-5.57-5.71-13.51-11.41-27.02-22.83-40.53-34.24-.36-.31-.65-.63-.9-.95,3.86,10.69,6.16,21.33,5.15,30.91-1.18,11.24-11.7,16.18-20.64,21.85-.45.43-.98.8-1.53,1.15,4.7,120.11-10.27,239.61-18.1,359.28,1.15,1.88,1.2,4.31-.95,6.26-7.87,7.12-17.09,7.97-26.6,3.58-1.71-.79-2.7-2.94-2.71-4.72-.08-15.22-.15-30.44-.23-45.67-.01-2.67,1.74-4.32,4.02-5.28,5.78-2.43,12.69-2.6,19.04-2.82,8-103.18,18.59-206.31,14.6-309.9-6.12-2.3-11.69-8.22-15.46-12.44-2.08-2.33-4.11-4.72-6.1-7.14-33.15,62.56-102.74,98.17-132.32,162.87-26.24,130.42-32.07,264.99-46.72,397.01-2.13,19.22-4.34,38.45-6.68,57.67-.36,57.04-.32,120.56,24.91,171.02,2.69,5.38-4.11,11.32-8.6,6.63-14.16-14.79-25.63-31.56-35.54-49.36-1.07,5.69-2.11,11.38-3.25,17.05-8.42,42.04-18.08,85.44-36.14,124.73,45.39-11.95,96.51-.75,140.31,11.57,60.88,17.12,119.09,41.74,178.59,62.91,1.26.45,2.17,1.2,2.78,2.09,1.7-.9,3.68-1.46,5.26-2.09.83-.33,1.69-.33,2.51-.14.2-.04.4-.07.6-.07,1.54-1.7,4-2.54,6.58-1.06,12.61,7.2,25.26,14.29,38.84,19.52,4.74,1.84,4.52,7.92,1.51,10.13-1.07,7.17-2.05,14.37-2.93,21.6,11.39-3.11,15.73-15.18,25.56-20.8,10.36-5.94,19.58-.53,27.09,6.84,47.31-24.06,90.66-55.79,134.99-84.74,47.17-30.81,98.46-62.38,120.75-116.75.08-52.7,1.59-105.64-2.75-158.22-2.22-26.8-5.48-53.69-12.06-79.81-13.82-36.34-38.17-79.64-69.36-103.82-2.2-1.7-2.3-3.93-1.29-5.74,10.27-35,16.74-70.36,20.19-106.67.38-4.06,4.25-5.75,7.29-5.09,3.01-.6,6.84,1.1,7.31,5.09,4.84,41.22,3.12,82.64,10,123.41,1.67-3.17,3.45-6.3,5.34-9.38,2.26-3.66,9.24-3.66,10,1.3,4.34,28.03,12.47,55.29,17.29,83.22.71,2.68,1.39,5.36,2.07,8.01.49,1.95.9,3.93,1.37,5.9.11.29.23.59.35.88.29.78.4,1.51.36,2.18,5.19,22.23,8.84,44.79,10.94,67.53,5.22,56.65,3.98,113.54,3.89,170.37.3.88.29,1.92-.12,3.07-.14.72-.42,1.32-.79,1.85-1.28,3.05-2.61,6.05-4.05,8.96,7.05-7.53,14.28-14.9,21.6-22.22,2.25-2.26,5.45-1.91,7.74,0,15.47,12.86,36.71,25.7,56.3,29.42,21.66,4.13,43.76,4.93,65.39,9.31,6.16,1.25,4.61,10.77-1.46,10.76-66.22-.14-140.5-5.2-197.95,33.78-.24.17-.49.28-.74.4-19.54,17.1-41.56,31.87-63.5,46.12-24.31,15.78-48.27,32.48-72.66,48.45-.19.36-.43.71-.72,1.05-30.95,36.35-30.66,86.26-16.84,129.72,2.15,6.75-8.43,9.62-10.56,2.92-12.54-39.42-13.76-82.94,5.34-119.13-16.94,10.53-34.18,20.5-52,29.35-.21.11-.42.16-.63.24-1.84.99-4.14.94-6.01-1.09-3-3.28-9.82-11.88-15.31-8.74-3.3,1.9-5.82,4.68-8.36,7.47-.02.22-.03.42-.08.65-6.89,30.7-4.48,66.24,10.4,94.33,2.88,5.44-4.1,11.14-8.6,6.63-12.03-12.03-23.17-26.4-30.29-42.28-2.24,52.9,2.18,106.15,17.58,156.7,10.06,32.99,24.42,68.49,47.97,94.89.78-.82,1.7-1.59,2.88-2.22,1.19-.63,2.38-1.22,3.57-1.83-8.67-32.8-7.18-66.1-10.48-99.64-.52-5.28,8.06-7.71,10.2-2.76,16.97,39.11,46.18,61.74,87.1,68.58,17.11-5.02,34.45-9.42,52-13.53,41.58-9.74,80.73-33.13,113.85-59.69,18.88-15.14,36.43-31.66,53.7-48.5-28.98-9.48-55.96-24.82-78-46.08-4.8-4.63,1.27-10.95,6.63-8.6,37.51,16.44,87.84,18.11,127.04.9,32.02-29.2,66.16-55.45,103.94-77.1,53.31-41.16,100.42-113.75,101.63-182.83.04-2.47.77-4.48,1.91-6.08,5.22-159.78,2.55-320.19-12.85-479.36-6.75-74.84-29.29-148.12-63.14-215.09h0Z"/>
      </g>
    </g>
  </g>
</svg>